<?xml version="1.0" encoding="UTF-8" standalone="no"?>
<!-- Created with Inkscape (http://www.inkscape.org/) -->

<svg
   xmlns:dc="http://purl.org/dc/elements/1.1/"
   xmlns:cc="http://creativecommons.org/ns#"
   xmlns:rdf="http://www.w3.org/1999/02/22-rdf-syntax-ns#"
   xmlns:svg="http://www.w3.org/2000/svg"
   xmlns="http://www.w3.org/2000/svg"
   xmlns:sodipodi="http://sodipodi.sourceforge.net/DTD/sodipodi-0.dtd"
   xmlns:inkscape="http://www.inkscape.org/namespaces/inkscape"
   version="1.1"
   id="svg2"
   xml:space="preserve"
   width="1056"
   height="816"
   viewBox="0 0 1056 816"
   sodipodi:docname="RGB-clock-face.svg"
   inkscape:version="0.92.3 (2405546, 2018-03-11)"><metadata
     id="metadata8"><rdf:RDF><cc:Work
         rdf:about=""><dc:format>image/svg+xml</dc:format><dc:type
           rdf:resource="http://purl.org/dc/dcmitype/StillImage" /><dc:title></dc:title></cc:Work></rdf:RDF></metadata><defs
     id="defs6"><clipPath
       clipPathUnits="userSpaceOnUse"
       id="clipPath18"><path
         d="M 252,243.52 V 572.64001 H 804.15997 V 243.52 Z"
         id="path16"
         inkscape:connector-curvature="0"
         style="clip-rule:evenodd" /></clipPath></defs><sodipodi:namedview
     pagecolor="#ffffff"
     bordercolor="#666666"
     borderopacity="1"
     objecttolerance="10"
     gridtolerance="10"
     guidetolerance="10"
     inkscape:pageopacity="0"
     inkscape:pageshadow="2"
     inkscape:window-width="1920"
     inkscape:window-height="1017"
     id="namedview4"
     showgrid="false"
     inkscape:zoom="1"
     inkscape:cx="546.6592"
     inkscape:cy="391.08594"
     inkscape:window-x="1912"
     inkscape:window-y="-8"
     inkscape:window-maximized="1"
     inkscape:current-layer="g10" /><g
     id="g10"
     inkscape:groupmode="layer"
     inkscape:label="f"
     transform="translate(0,2.04e-5)"><g
       id="g12"><g
         id="g14"
         clip-path="url(#clipPath18)"><g
           id="g20"><path
             d="M 350.07999,323.20001 H 285.12 L 276.48001,314.56 285.12,305.76001 h 64.95999 L 358.72,314.56 Z"
             style="fill:#868282;fill-opacity:1;fill-rule:nonzero;stroke:none"
             id="path22"
             inkscape:connector-curvature="0" /></g><g
           id="g24"
           transform="translate(350.23999,324.48001)"><path
             d="m 0,0 h -65.440002 c -0.159996,0 -0.32,0 -0.479996,-0.16 l -9.279999,-9.28 0.479996,-0.48 0.480003,0.48 -0.480003,-0.48 -0.479996,0.48 c -0.32,-0.32 -0.32,-0.8 0,-0.96 l 9.279999,-9.44 c 0.159996,-0.16 0.32,-0.16 0.479996,-0.16 L 0,-20 c 0.16,0 0.48,0 0.48,0.16 l 9.44,9.44 c 0.16,0 0.16,0.32 0.16,0.48 0,0.16 0,0.32 -0.16,0.48 L 0.48,-0.16 C 0.48,0 0.16,0 0,0 Z m -73.760002,-9.92 8.639999,8.64 H -0.16 l 8.64,-8.64 -8.64,-8.799999 h -64.960003 z"
             style="fill:#7f7c7c;fill-opacity:1;fill-rule:nonzero;stroke:none"
             id="path26"
             inkscape:connector-curvature="0" /></g><g
           id="g28"><path
             d="m 270.72,402.39999 -8.64001,-8.63998 V 328.79999 L 270.72,320.16 l 8.79999,8.63999 v 64.96002 z"
             style="fill:#868282;fill-opacity:1;fill-rule:nonzero;stroke:none"
             id="path30"
             inkscape:connector-curvature="0" /></g><g
           id="g32"
           transform="translate(270.72,404)"><path
             d="M 0,0 C -0.16,0 -0.32,0 -0.32,-0.16 L -9.76,-9.6 c -0.16,0 -0.16,-0.16 -0.16,-0.48 v -65.439997 c 0,-0.160003 0,-0.319999 0.16,-0.480003 l 9.44,-9.279999 c 0,-0.160003 0.16,-0.160003 0.32,-0.160003 0.32,0 0.48,0 0.48,0.160003 L 9.92,-76 c 0.16,0.160004 0.16,0.32 0.16,0.480003 V -10.08 c 0,0.32 0,0.48 -0.16,0.48 L 0.48,-0.16 C 0.48,0 0.32,0 0,0 Z m 0,-83.839996 -8.64,8.639999 V -10.24 L 0,-1.6 8.8,-10.24 v -64.959997 z"
             style="fill:#7f7c7c;fill-opacity:1;fill-rule:nonzero;stroke:none"
             id="path34"
             inkscape:connector-curvature="0" /></g><g
           id="g36"><path
             d="m 364.32001,402.39999 -8.64002,-8.63998 v -64.96002 l 8.64002,-8.63999 8.63998,8.63999 v 64.96002 z"
             style="fill:#868282;fill-opacity:1;fill-rule:nonzero;stroke:none"
             id="path38"
             inkscape:connector-curvature="0" /></g><g
           id="g40"
           transform="translate(364.32001,404)"><path
             d="M 0,0 C -0.16,0 -0.32,0 -0.48,-0.16 L -9.76,-9.6 c -0.16,0 -0.32,-0.16 -0.32,-0.48 V -75.519997 C -10.08,-75.68 -9.92,-75.839996 -9.76,-76 l 9.28,-9.279999 c 0.16,-0.160003 0.32,-0.160003 0.48,-0.160003 0.16,0 0.32,0 0.48,0.160003 L 9.76,-76 c 0.16,0.160004 0.32,0.32 0.32,0.480003 V -10.08 c 0,0.32 -0.16,0.48 -0.32,0.48 L 0.48,-0.16 C 0.32,0 0.16,0 0,0 Z m 0,-83.839996 -8.64,8.639999 V -10.24 L 0,-1.6 8.64,-10.24 v -64.959997 z"
             style="fill:#7f7c7c;fill-opacity:1;fill-rule:nonzero;stroke:none"
             id="path42"
             inkscape:connector-curvature="0" /></g><g
           id="g44"><path
             d="M 350.07999,416.64001 H 285.12 L 276.48001,408 285.12,399.35999 h 64.95999 L 358.72,408 Z"
             style="fill:#868282;fill-opacity:1;fill-rule:nonzero;stroke:none"
             id="path46"
             inkscape:connector-curvature="0" /></g><g
           id="g48"
           transform="translate(350.23999,418.07999)"><path
             d="m 0,0 h -65.440002 c -0.159996,0 -0.32,-0.16 -0.479996,-0.16 l -9.279999,-9.44 0.479996,-0.48 0.480003,0.48 -0.480003,-0.48 -0.479996,0.48 c -0.32,-0.32 -0.32,-0.64 0,-0.96 l 9.279999,-9.28 c 0.159996,-0.16 0.32,-0.16 0.479996,-0.16 L 0,-20 c 0.16,0 0.48,0 0.48,0.16 l 9.44,9.28 c 0.16,0.16 0.16,0.32 0.16,0.48 0,0.16 0,0.32 -0.16,0.48 L 0.48,-0.16 C 0.48,-0.16 0.16,0 0,0 Z m -73.760002,-10.08 8.639999,8.64 H -0.16 l 8.64,-8.64 -8.64,-8.639999 h -64.960003 z"
             style="fill:#7f7c7c;fill-opacity:1;fill-rule:nonzero;stroke:none"
             id="path50"
             inkscape:connector-curvature="0" /></g><g
           id="g52"><path
             d="m 270.72,496 -8.64001,-8.79999 v -64.80002 l 8.64001,-8.79998 8.79999,8.79998 v 64.80002 z"
             style="fill:#868282;fill-opacity:1;fill-rule:nonzero;stroke:none"
             id="path54"
             inkscape:connector-curvature="0" /></g><g
           id="g56"
           transform="translate(270.72,497.60001)"><path
             d="M 0,0 C -0.16,0 -0.32,-0.16 -0.32,-0.32 L -9.76,-9.6 c -0.16,-0.16 -0.16,-0.32 -0.16,-0.48 v -65.439997 c 0,-0.160003 0,-0.319999 0.16,-0.480003 l 9.44,-9.440002 c 0,0 0.16,-0.159996 0.32,-0.159996 0.32,0 0.48,0.159996 0.48,0.159996 L 9.92,-76 c 0.16,0.160004 0.16,0.32 0.16,0.480003 V -10.08 c 0,0.16 0,0.32 -0.16,0.48 L 0.48,-0.32 C 0.48,-0.16 0.32,0 0,0 Z m 0,-84 -8.64,8.800003 V -10.4 L 0,-1.6 8.8,-10.4 v -64.799997 z"
             style="fill:#7f7c7c;fill-opacity:1;fill-rule:nonzero;stroke:none"
             id="path58"
             inkscape:connector-curvature="0" /></g><g
           id="g60"><path
             d="m 364.32001,496 -8.64002,-8.79999 v -64.80002 l 8.64002,-8.79998 8.63998,8.79998 v 64.80002 z"
             style="fill:#868282;fill-opacity:1;fill-rule:nonzero;stroke:none"
             id="path62"
             inkscape:connector-curvature="0" /></g><g
           id="g64"
           transform="translate(364.32001,497.60001)"><path
             d="M 0,0 C -0.16,0 -0.32,-0.16 -0.48,-0.32 L -9.76,-9.6 c -0.16,-0.16 -0.32,-0.32 -0.32,-0.48 V -75.519997 C -10.08,-75.68 -9.92,-75.839996 -9.76,-76 l 9.28,-9.440002 c 0.16,0 0.32,-0.159996 0.48,-0.159996 0.16,0 0.32,0.159996 0.48,0.159996 L 9.76,-76 c 0.16,0.160004 0.32,0.32 0.32,0.480003 V -10.08 c 0,0.16 -0.16,0.32 -0.32,0.48 L 0.48,-0.32 C 0.32,-0.16 0.16,0 0,0 Z m 0,-84 -8.64,8.800003 V -10.4 L 0,-1.6 8.64,-10.4 v -64.799997 z"
             style="fill:#7f7c7c;fill-opacity:1;fill-rule:nonzero;stroke:none"
             id="path66"
             inkscape:connector-curvature="0" /></g><g
           id="g68"><path
             d="M 350.07999,510.23999 H 285.12 l -8.63999,-8.63998 8.63999,-8.80002 h 64.95999 l 8.64001,8.80002 z"
             style="fill:#868282;fill-opacity:1;fill-rule:nonzero;stroke:none"
             id="path70"
             inkscape:connector-curvature="0" /></g><g
           id="g72"
           transform="translate(350.23999,511.51999)"><path
             d="m 0,0 h -65.440002 c -0.159996,0 -0.32,0 -0.479996,-0.16 l -9.279999,-9.28 0.479996,-0.48 0.480003,0.48 -0.480003,-0.48 -0.479996,0.48 c -0.32,-0.32 -0.32,-0.8 0,-0.96 l 9.279999,-9.44 c 0.159996,0 0.32,-0.16 0.479996,-0.16 L 0,-20 c 0.16,0 0.48,0.16 0.48,0.16 l 9.44,9.44 c 0.16,0.16 0.16,0.32 0.16,0.48 0,0.16 0,0.32 -0.16,0.48 L 0.48,-0.16 C 0.48,0 0.16,0 0,0 Z m -73.760002,-9.92 8.639999,8.64 H -0.16 l 8.64,-8.64 -8.64,-8.799999 h -64.960003 z"
             style="fill:#7f7c7c;fill-opacity:1;fill-rule:nonzero;stroke:none"
             id="path74"
             inkscape:connector-curvature="0" /></g><g
           id="g76"><path
             d="M 480.95999,323.20001 H 416 L 407.35999,314.56 416,305.76001 h 64.95999 l 8.64002,8.79999 z"
             style="fill:#868282;fill-opacity:1;fill-rule:nonzero;stroke:none"
             id="path78"
             inkscape:connector-curvature="0" /></g><g
           id="g80"
           transform="translate(481.28,324.48001)"><path
             d="m 0,0 h -65.440002 c -0.32,0 -0.479996,0 -0.479996,-0.16 l -9.440003,-9.28 0.480004,-0.48 0.479995,0.48 -0.479995,-0.48 -0.480004,0.48 c -0.159996,-0.16 -0.159996,-0.32 -0.159996,-0.48 0,-0.16 0,-0.48 0.159996,-0.48 l 9.440003,-9.44 c 0,-0.16 0.159996,-0.16 0.479996,-0.16 H 0 c 0.16,0 0.32,0 0.48,0.16 l 9.28,9.44 c 0.16,0 0.16,0.32 0.16,0.48 0,0.16 0,0.32 -0.16,0.48 L 0.48,-0.16 C 0.32,0 0.16,0 0,0 Z m -73.919998,-9.92 8.639999,8.64 H -0.32 l 8.64,-8.64 -8.64,-8.799999 h -64.959999 z"
             style="fill:#7f7c7c;fill-opacity:1;fill-rule:nonzero;stroke:none"
             id="path82"
             inkscape:connector-curvature="0" /></g><g
           id="g84"><path
             d="M 401.76001,402.39999 393.12,393.76001 v -64.96002 l 8.64001,-8.63999 8.63998,8.63999 v 64.96002 z"
             style="fill:#868282;fill-opacity:1;fill-rule:nonzero;stroke:none"
             id="path86"
             inkscape:connector-curvature="0" /></g><g
           id="g88"
           transform="translate(401.76001,404)"><path
             d="M 0,0 C -0.16,0 -0.32,0 -0.48,-0.16 L -9.92,-9.6 c 0,0 -0.16,-0.16 -0.16,-0.48 V -75.519997 C -10.08,-75.68 -9.92,-75.839996 -9.92,-76 l 9.44,-9.279999 c 0.16,-0.160003 0.32,-0.160003 0.48,-0.160003 0.16,0 0.32,0 0.48,0.160003 L 9.76,-76 c 0.16,0.160004 0.16,0.32 0.16,0.480003 V -10.08 c 0,0.32 0,0.48 -0.16,0.48 L 0.48,-0.16 C 0.32,0 0.16,0 0,0 Z m 0,-83.839996 -8.64,8.639999 V -10.24 L 0,-1.6 8.64,-10.24 v -64.959997 z"
             style="fill:#7f7c7c;fill-opacity:1;fill-rule:nonzero;stroke:none"
             id="path90"
             inkscape:connector-curvature="0" /></g><g
           id="g92"><path
             d="M 495.20001,402.39999 486.56,393.76001 V 328.79999 L 495.20001,320.16 504,328.79999 v 64.96002 z"
             style="fill:#868282;fill-opacity:1;fill-rule:nonzero;stroke:none"
             id="path94"
             inkscape:connector-curvature="0" /></g><g
           id="g96"
           transform="translate(495.20001,404)"><path
             d="M 0,0 C -0.16,0 -0.32,0 -0.48,-0.16 L -9.76,-9.6 c -0.16,0 -0.16,-0.16 -0.16,-0.48 v -65.439997 c 0,-0.160003 0,-0.319999 0.16,-0.480003 l 9.28,-9.279999 c 0.16,-0.160003 0.32,-0.160003 0.48,-0.160003 0.16,0 0.48,0 0.48,0.160003 L 9.92,-76 c 0.16,0.160004 0.16,0.32 0.16,0.480003 V -10.08 c 0,0.32 0,0.48 -0.16,0.48 L 0.48,-0.16 C 0.48,0 0.16,0 0,0 Z m 0,-83.839996 -8.64,8.639999 V -10.24 L 0,-1.6 8.8,-10.24 v -64.959997 z"
             style="fill:#7f7c7c;fill-opacity:1;fill-rule:nonzero;stroke:none"
             id="path98"
             inkscape:connector-curvature="0" /></g><g
           id="g100"><path
             d="M 480.95999,416.64001 H 416 L 407.35999,408 416,399.35999 h 64.95999 L 489.60001,408 Z"
             style="fill:#868282;fill-opacity:1;fill-rule:nonzero;stroke:none"
             id="path102"
             inkscape:connector-curvature="0" /></g><g
           id="g104"
           transform="translate(481.28,418.07999)"><path
             d="m 0,0 h -65.440002 c -0.32,0 -0.479996,-0.16 -0.479996,-0.16 l -9.440003,-9.44 0.480004,-0.48 0.479995,0.48 -0.479995,-0.48 -0.480004,0.48 c -0.159996,-0.16 -0.159996,-0.32 -0.159996,-0.48 0,-0.16 0,-0.32 0.159996,-0.48 l 9.440003,-9.28 c 0,-0.16 0.159996,-0.16 0.479996,-0.16 H 0 c 0.16,0 0.32,0 0.48,0.16 l 9.28,9.28 c 0.16,0.16 0.16,0.32 0.16,0.48 0,0.16 0,0.32 -0.16,0.48 L 0.48,-0.16 C 0.32,-0.16 0.16,0 0,0 Z m -73.919998,-10.08 8.639999,8.64 H -0.32 l 8.64,-8.64 -8.64,-8.639999 h -64.959999 z"
             style="fill:#7f7c7c;fill-opacity:1;fill-rule:nonzero;stroke:none"
             id="path106"
             inkscape:connector-curvature="0" /></g><g
           id="g108"><path
             d="M 401.76001,496 393.12,487.20001 v -64.80002 l 8.64001,-8.79998 8.63998,8.79998 v 64.80002 z"
             style="fill:#868282;fill-opacity:1;fill-rule:nonzero;stroke:none"
             id="path110"
             inkscape:connector-curvature="0" /></g><g
           id="g112"
           transform="translate(401.76001,497.60001)"><path
             d="M 0,0 C -0.16,0 -0.32,-0.16 -0.48,-0.32 L -9.92,-9.6 c 0,-0.16 -0.16,-0.32 -0.16,-0.48 V -75.519997 C -10.08,-75.68 -9.92,-75.839996 -9.92,-76 l 9.44,-9.440002 c 0.16,0 0.32,-0.159996 0.48,-0.159996 0.16,0 0.32,0.159996 0.48,0.159996 L 9.76,-76 c 0.16,0.160004 0.16,0.32 0.16,0.480003 V -10.08 c 0,0.16 0,0.32 -0.16,0.48 L 0.48,-0.32 C 0.32,-0.16 0.16,0 0,0 Z m 0,-84 -8.64,8.800003 V -10.4 L 0,-1.6 8.64,-10.4 v -64.799997 z"
             style="fill:#7f7c7c;fill-opacity:1;fill-rule:nonzero;stroke:none"
             id="path114"
             inkscape:connector-curvature="0" /></g><g
           id="g116"><path
             d="M 495.20001,496 486.56,487.20001 v -64.80002 l 8.64001,-8.79998 8.79999,8.79998 v 64.80002 z"
             style="fill:#868282;fill-opacity:1;fill-rule:nonzero;stroke:none"
             id="path118"
             inkscape:connector-curvature="0" /></g><g
           id="g120"
           transform="translate(495.20001,497.60001)"><path
             d="M 0,0 C -0.16,0 -0.32,-0.16 -0.48,-0.32 L -9.76,-9.6 c -0.16,-0.16 -0.16,-0.32 -0.16,-0.48 v -65.439997 c 0,-0.160003 0,-0.319999 0.16,-0.480003 l 9.28,-9.440002 c 0.16,0 0.32,-0.159996 0.48,-0.159996 0.16,0 0.48,0.159996 0.48,0.159996 L 9.92,-76 c 0.16,0.160004 0.16,0.32 0.16,0.480003 V -10.08 c 0,0.16 0,0.32 -0.16,0.48 L 0.48,-0.32 C 0.48,-0.16 0.16,0 0,0 Z m 0,-84 -8.64,8.800003 V -10.4 L 0,-1.6 8.8,-10.4 v -64.799997 z"
             style="fill:#7f7c7c;fill-opacity:1;fill-rule:nonzero;stroke:none"
             id="path122"
             inkscape:connector-curvature="0" /></g><g
           id="g124"><path
             d="M 480.95999,510.23999 H 416 L 407.35999,501.60001 416,492.79999 h 64.95999 l 8.64002,8.80002 z"
             style="fill:#868282;fill-opacity:1;fill-rule:nonzero;stroke:none"
             id="path126"
             inkscape:connector-curvature="0" /></g><g
           id="g128"
           transform="translate(481.28,511.51999)"><path
             d="m 0,0 h -65.440002 c -0.32,0 -0.479996,0 -0.479996,-0.16 l -9.440003,-9.28 0.480004,-0.48 0.479995,0.48 -0.479995,-0.48 -0.480004,0.48 c -0.159996,-0.16 -0.159996,-0.32 -0.159996,-0.48 0,-0.16 0,-0.32 0.159996,-0.48 l 9.440003,-9.44 c 0,0 0.159996,-0.16 0.479996,-0.16 H 0 c 0.16,0 0.32,0.16 0.48,0.16 l 9.28,9.44 c 0.16,0.16 0.16,0.32 0.16,0.48 0,0.16 0,0.32 -0.16,0.48 L 0.48,-0.16 C 0.32,0 0.16,0 0,0 Z m -73.919998,-9.92 8.639999,8.64 H -0.32 l 8.64,-8.64 -8.64,-8.799999 h -64.959999 z"
             style="fill:#7f7c7c;fill-opacity:1;fill-rule:nonzero;stroke:none"
             id="path130"
             inkscape:connector-curvature="0" /></g><g
           id="g132"
           transform="translate(527.84003,369.76001)"><path
             d="m 0,0 c -2.24,0 -4.48,-0.96 -6.08,-2.4 -1.44,-1.6 -2.4,-3.68 -2.4,-6.08 0,-2.4 0.96,-4.48 2.4,-6.08 1.6,-1.6 3.84,-2.560001 6.08,-2.560001 2.4,0 4.64,0.960001 6.08,2.560001 1.6,1.6 2.56,3.68 2.56,6.08 0,2.4 -0.96,4.48 -2.56,6.08 C 4.64,-0.96 2.4,0 0,0 Z"
             style="fill:#868282;fill-opacity:1;fill-rule:nonzero;stroke:none"
             id="path134"
             inkscape:connector-curvature="0" /></g><g
           id="g136"
           transform="translate(527.84003,371.20001)"><path
             d="m 0,0 c -5.44,0 -9.92,-4.48 -9.92,-9.92 0,-5.44 4.48,-9.92 9.92,-9.92 5.6,0 9.92,4.48 9.92,9.92 v 0 0 0 C 9.92,-4.48 5.6,0 0,0 Z m 0,-18.559999 c -2.24,0 -4.48,0.959999 -6.08,2.559999 -1.44,1.6 -2.4,3.68 -2.4,6.08 0,2.4 0.96,4.48 2.4,6.08 1.6,1.44 3.84,2.4 6.08,2.4 2.4,0 4.64,-0.96 6.08,-2.4 1.6,-1.6 2.56,-3.68 2.56,-6.08 0,-2.4 -0.96,-4.48 -2.56,-6.08 C 4.64,-17.6 2.4,-18.559999 0,-18.559999 Z M 9.92,-9.92 v 0 z"
             style="fill:#7f7c7c;fill-opacity:1;fill-rule:nonzero;stroke:none"
             id="path138"
             inkscape:connector-curvature="0" /></g><g
           id="g140"
           transform="translate(527.84003,463.35999)"><path
             d="m 0,0 c -2.24,0 -4.48,-0.96 -6.08,-2.56 -1.44,-1.44 -2.4,-3.68 -2.4,-6.08 0,-2.24 0.96,-4.48 2.4,-5.92 1.6,-1.6 3.84,-2.560001 6.08,-2.560001 2.4,0 4.64,0.960001 6.08,2.560001 1.6,1.44 2.56,3.68 2.56,5.92 0,2.4 -0.96,4.64 -2.56,6.08 C 4.64,-0.96 2.4,0 0,0 Z"
             style="fill:#868282;fill-opacity:1;fill-rule:nonzero;stroke:none"
             id="path142"
             inkscape:connector-curvature="0" /></g><g
           id="g144"
           transform="translate(527.84003,464.64001)"><path
             d="m 0,0 c -5.44,0 -9.92,-4.32 -9.92,-9.92 0,-5.44 4.48,-9.76 9.92,-9.76 5.6,0 9.92,4.32 9.92,9.76 v 0 0 0 C 9.92,-4.32 5.6,0 0,0 Z m 0,-18.4 c -2.24,0 -4.48,0.959999 -6.08,2.56 -1.44,1.44 -2.4,3.68 -2.4,5.92 0,2.4 0.96,4.64 2.4,6.08 1.6,1.6 3.84,2.56 6.08,2.56 2.4,0 4.64,-0.96 6.08,-2.56 1.6,-1.44 2.56,-3.68 2.56,-6.08 0,-2.24 -0.96,-4.48 -2.56,-5.92 C 4.64,-17.440001 2.4,-18.4 0,-18.4 Z m 9.92,8.48 v 0 z"
             style="fill:#7f7c7c;fill-opacity:1;fill-rule:nonzero;stroke:none"
             id="path146"
             inkscape:connector-curvature="0" /></g><g
           id="g148"><path
             d="m 640,323.20001 h -64.96002 l -8.63996,-8.64001 8.63996,-8.79999 H 640 l 8.64001,8.79999 z"
             style="fill:#868282;fill-opacity:1;fill-rule:nonzero;stroke:none"
             id="path150"
             inkscape:connector-curvature="0" /></g><g
           id="g152"
           transform="translate(640.15997,324.48001)"><path
             d="m 0,0 h -65.440002 c -0.159996,0 -0.32,0 -0.479996,-0.16 l -9.279999,-9.28 0.479996,-0.48 0.480003,0.48 -0.480003,-0.48 -0.479996,0.48 c -0.32,-0.32 -0.32,-0.8 0,-0.96 l 9.279999,-9.44 c 0.159996,-0.16 0.32,-0.16 0.479996,-0.16 L 0,-20 c 0.32,0 0.48,0 0.48,0.16 l 9.44,9.44 c 0.16,0 0.16,0.32 0.16,0.48 0,0.16 0,0.32 -0.16,0.48 L 0.48,-0.16 C 0.48,0 0.32,0 0,0 Z m -73.760002,-9.92 8.639999,8.64 H -0.16 l 8.64,-8.64 -8.64,-8.799999 h -64.960003 z"
             style="fill:#7f7c7c;fill-opacity:1;fill-rule:nonzero;stroke:none"
             id="path154"
             inkscape:connector-curvature="0" /></g><g
           id="g156"><path
             d="M 560.79999,402.39999 552,393.76001 v -64.96002 l 8.79999,-8.63999 8.64001,8.63999 v 64.96002 z"
             style="fill:#868282;fill-opacity:1;fill-rule:nonzero;stroke:none"
             id="path158"
             inkscape:connector-curvature="0" /></g><g
           id="g160"
           transform="translate(560.79999,404)"><path
             d="M 0,0 C -0.32,0 -0.48,0 -0.48,-0.16 L -9.92,-9.6 c -0.16,0 -0.16,-0.16 -0.16,-0.48 v -65.439997 c 0,-0.160003 0,-0.319999 0.16,-0.480003 l 9.44,-9.279999 c 0,-0.160003 0.16,-0.160003 0.48,-0.160003 0.16,0 0.32,0 0.48,0.160003 L 9.76,-76 c 0.16,0.160004 0.16,0.32 0.16,0.480003 V -10.08 c 0,0.32 0,0.48 -0.16,0.48 L 0.48,-0.16 C 0.32,0 0.16,0 0,0 Z m 0,-83.839996 -8.8,8.639999 V -10.24 L 0,-1.6 8.64,-10.24 v -64.959997 z"
             style="fill:#7f7c7c;fill-opacity:1;fill-rule:nonzero;stroke:none"
             id="path162"
             inkscape:connector-curvature="0" /></g><g
           id="g164"><path
             d="m 654.23999,402.39999 -8.64001,-8.63998 v -64.96002 l 8.64001,-8.63999 8.64001,8.63999 v 64.96002 z"
             style="fill:#868282;fill-opacity:1;fill-rule:nonzero;stroke:none"
             id="path166"
             inkscape:connector-curvature="0" /></g><g
           id="g168"
           transform="translate(654.23999,404)"><path
             d="M 0,0 C -0.16,0 -0.32,0 -0.48,-0.16 L -9.76,-9.6 c -0.16,0 -0.16,-0.16 -0.16,-0.48 v -65.439997 c 0,-0.160003 0,-0.319999 0.16,-0.480003 l 9.28,-9.279999 c 0.16,-0.160003 0.32,-0.160003 0.48,-0.160003 0.16,0 0.32,0 0.48,0.160003 L 9.92,-76 c 0,0.160004 0.16,0.32 0.16,0.480003 V -10.08 c 0,0.32 -0.16,0.48 -0.16,0.48 L 0.48,-0.16 C 0.32,0 0.16,0 0,0 Z m 0,-83.839996 -8.64,8.639999 V -10.24 L 0,-1.6 8.64,-10.24 v -64.959997 z"
             style="fill:#7f7c7c;fill-opacity:1;fill-rule:nonzero;stroke:none"
             id="path170"
             inkscape:connector-curvature="0" /></g><g
           id="g172"><path
             d="M 640,416.64001 H 575.03998 L 566.40002,408 l 8.63996,-8.64001 H 640 L 648.64001,408 Z"
             style="fill:#868282;fill-opacity:1;fill-rule:nonzero;stroke:none"
             id="path174"
             inkscape:connector-curvature="0" /></g><g
           id="g176"
           transform="translate(640.15997,418.07999)"><path
             d="m 0,0 h -65.440002 c -0.159996,0 -0.32,-0.16 -0.479996,-0.16 l -9.279999,-9.44 0.479996,-0.48 0.480003,0.48 -0.480003,-0.48 -0.479996,0.48 c -0.32,-0.32 -0.32,-0.64 0,-0.96 l 9.279999,-9.28 c 0.159996,-0.16 0.32,-0.16 0.479996,-0.16 L 0,-20 c 0.32,0 0.48,0 0.48,0.16 l 9.44,9.28 c 0.16,0.16 0.16,0.32 0.16,0.48 0,0.16 0,0.32 -0.16,0.48 L 0.48,-0.16 C 0.48,-0.16 0.32,0 0,0 Z m -73.760002,-10.08 8.639999,8.64 H -0.16 l 8.64,-8.64 -8.64,-8.639999 h -64.960003 z"
             style="fill:#7f7c7c;fill-opacity:1;fill-rule:nonzero;stroke:none"
             id="path178"
             inkscape:connector-curvature="0" /></g><g
           id="g180"><path
             d="M 560.79999,496 552,487.20001 v -64.80002 l 8.79999,-8.79998 8.64001,8.79998 v 64.80002 z"
             style="fill:#868282;fill-opacity:1;fill-rule:nonzero;stroke:none"
             id="path182"
             inkscape:connector-curvature="0" /></g><g
           id="g184"
           transform="translate(560.79999,497.60001)"><path
             d="M 0,0 C -0.32,0 -0.48,-0.16 -0.48,-0.32 L -9.92,-9.6 c -0.16,-0.16 -0.16,-0.32 -0.16,-0.48 v -65.439997 c 0,-0.160003 0,-0.319999 0.16,-0.480003 l 9.44,-9.440002 c 0,0 0.16,-0.159996 0.48,-0.159996 0.16,0 0.32,0.159996 0.48,0.159996 L 9.76,-76 c 0.16,0.160004 0.16,0.32 0.16,0.480003 V -10.08 c 0,0.16 0,0.32 -0.16,0.48 L 0.48,-0.32 C 0.32,-0.16 0.16,0 0,0 Z m 0,-84 -8.8,8.800003 V -10.4 l 8.8,8.8 8.64,-8.8 v -64.799997 z"
             style="fill:#7f7c7c;fill-opacity:1;fill-rule:nonzero;stroke:none"
             id="path186"
             inkscape:connector-curvature="0" /></g><g
           id="g188"><path
             d="m 654.23999,496 -8.64001,-8.79999 v -64.80002 l 8.64001,-8.79998 8.64001,8.79998 v 64.80002 z"
             style="fill:#868282;fill-opacity:1;fill-rule:nonzero;stroke:none"
             id="path190"
             inkscape:connector-curvature="0" /></g><g
           id="g192"
           transform="translate(654.23999,497.60001)"><path
             d="M 0,0 C -0.16,0 -0.32,-0.16 -0.48,-0.32 L -9.76,-9.6 c -0.16,-0.16 -0.16,-0.32 -0.16,-0.48 v -65.439997 c 0,-0.160003 0,-0.319999 0.16,-0.480003 l 9.28,-9.440002 c 0.16,0 0.32,-0.159996 0.48,-0.159996 0.16,0 0.32,0.159996 0.48,0.159996 L 9.92,-76 c 0,0.160004 0.16,0.32 0.16,0.480003 V -10.08 c 0,0.16 -0.16,0.32 -0.16,0.48 L 0.48,-0.32 C 0.32,-0.16 0.16,0 0,0 Z m 0,-84 -8.64,8.800003 V -10.4 L 0,-1.6 8.64,-10.4 v -64.799997 z"
             style="fill:#7f7c7c;fill-opacity:1;fill-rule:nonzero;stroke:none"
             id="path194"
             inkscape:connector-curvature="0" /></g><g
           id="g196"><path
             d="m 640,510.23999 h -64.96002 l -8.63996,-8.63998 8.63996,-8.80002 H 640 l 8.64001,8.80002 z"
             style="fill:#868282;fill-opacity:1;fill-rule:nonzero;stroke:none"
             id="path198"
             inkscape:connector-curvature="0" /></g><g
           id="g200"
           transform="translate(640.15997,511.51999)"><path
             d="m 0,0 h -65.440002 c -0.159996,0 -0.32,0 -0.479996,-0.16 l -9.279999,-9.28 0.479996,-0.48 0.480003,0.48 -0.480003,-0.48 -0.479996,0.48 c -0.32,-0.32 -0.32,-0.8 0,-0.96 l 9.279999,-9.44 c 0.159996,0 0.32,-0.16 0.479996,-0.16 L 0,-20 c 0.32,0 0.48,0.16 0.48,0.16 l 9.44,9.44 c 0.16,0.16 0.16,0.32 0.16,0.48 0,0.16 0,0.32 -0.16,0.48 L 0.48,-0.16 C 0.48,0 0.32,0 0,0 Z m -73.760002,-9.92 8.639999,8.64 H -0.16 l 8.64,-8.64 -8.64,-8.799999 h -64.960003 z"
             style="fill:#7f7c7c;fill-opacity:1;fill-rule:nonzero;stroke:none"
             id="path202"
             inkscape:connector-curvature="0" /></g><g
           id="g204"><path
             d="m 770.88,323.20001 h -64.96002 l -8.63995,-8.64001 8.63995,-8.79999 H 770.88 l 8.64002,8.79999 z"
             style="fill:#868282;fill-opacity:1;fill-rule:nonzero;stroke:none"
             id="path206"
             inkscape:connector-curvature="0" /></g><g
           id="g208"
           transform="translate(771.20001,324.48001)"><path
             d="m 0,0 h -65.440002 c -0.159996,0 -0.479996,0 -0.479996,-0.16 l -9.440003,-9.28 0.480004,-0.48 0.479995,0.48 -0.479995,-0.48 -0.480004,0.48 c -0.159996,-0.32 -0.159996,-0.8 0,-0.96 l 9.440003,-9.44 c 0,-0.16 0.32,-0.16 0.479996,-0.16 L 0,-20 c 0.16,0 0.32,0 0.48,0.16 l 9.28,9.44 c 0.16,0 0.16,0.32 0.16,0.48 0,0.16 0,0.32 -0.16,0.48 L 0.48,-0.16 C 0.32,0 0.16,0 0,0 Z m -73.919998,-9.92 8.639999,8.64 H -0.32 l 8.64,-8.64 -8.64,-8.799999 h -64.959999 z"
             style="fill:#7f7c7c;fill-opacity:1;fill-rule:nonzero;stroke:none"
             id="path210"
             inkscape:connector-curvature="0" /></g><g
           id="g212"><path
             d="m 691.67999,402.39999 -8.64001,-8.63998 v -64.96002 l 8.64001,-8.63999 8.64002,8.63999 v 64.96002 z"
             style="fill:#868282;fill-opacity:1;fill-rule:nonzero;stroke:none"
             id="path214"
             inkscape:connector-curvature="0" /></g><g
           id="g216"
           transform="translate(691.67999,404)"><path
             d="M 0,0 C -0.16,0 -0.32,0 -0.48,-0.16 L -9.76,-9.6 c -0.16,0 -0.32,-0.16 -0.32,-0.48 V -75.519997 C -10.08,-75.68 -9.92,-75.839996 -9.76,-76 l 9.28,-9.279999 c 0.16,-0.160003 0.32,-0.160003 0.48,-0.160003 0.16,0 0.32,0 0.48,0.160003 L 9.76,-76 c 0.16,0.160004 0.32,0.32 0.32,0.480003 V -10.08 c 0,0.32 -0.16,0.48 -0.32,0.48 L 0.48,-0.16 C 0.32,0 0.16,0 0,0 Z m 0,-83.839996 -8.64,8.639999 V -10.24 L 0,-1.6 8.64,-10.24 v -64.959997 z"
             style="fill:#7f7c7c;fill-opacity:1;fill-rule:nonzero;stroke:none"
             id="path218"
             inkscape:connector-curvature="0" /></g><g
           id="g220"><path
             d="m 785.12,402.39999 -8.64002,-8.63998 V 328.79999 L 785.12,320.16 l 8.79998,8.63999 v 64.96002 z"
             style="fill:#868282;fill-opacity:1;fill-rule:nonzero;stroke:none"
             id="path222"
             inkscape:connector-curvature="0" /></g><g
           id="g224"
           transform="translate(785.12,404)"><path
             d="M 0,0 C -0.16,0 -0.32,0 -0.32,-0.16 L -9.76,-9.6 c -0.16,0 -0.16,-0.16 -0.16,-0.48 v -65.439997 c 0,-0.160003 0,-0.319999 0.16,-0.480003 l 9.44,-9.279999 c 0,-0.160003 0.16,-0.160003 0.32,-0.160003 0.32,0 0.48,0 0.48,0.160003 L 9.92,-76 c 0.16,0.160004 0.16,0.32 0.16,0.480003 V -10.08 c 0,0.32 0,0.48 -0.16,0.48 L 0.48,-0.16 C 0.48,0 0.32,0 0,0 Z m 0,-83.839996 -8.64,8.639999 V -10.24 L 0,-1.6 8.8,-10.24 v -64.959997 z"
             style="fill:#7f7c7c;fill-opacity:1;fill-rule:nonzero;stroke:none"
             id="path226"
             inkscape:connector-curvature="0" /></g><g
           id="g228"><path
             d="M 770.88,416.64001 H 705.91998 L 697.28003,408 l 8.63995,-8.64001 H 770.88 L 779.52002,408 Z"
             style="fill:#868282;fill-opacity:1;fill-rule:nonzero;stroke:none"
             id="path230"
             inkscape:connector-curvature="0" /></g><g
           id="g232"
           transform="translate(771.20001,418.07999)"><path
             d="m 0,0 h -65.440002 c -0.159996,0 -0.479996,-0.16 -0.479996,-0.16 l -9.440003,-9.44 0.480004,-0.48 0.479995,0.48 -0.479995,-0.48 -0.480004,0.48 c -0.159996,-0.32 -0.159996,-0.64 0,-0.96 l 9.440003,-9.28 c 0,-0.16 0.32,-0.16 0.479996,-0.16 L 0,-20 c 0.16,0 0.32,0 0.48,0.16 l 9.28,9.28 c 0.16,0.16 0.16,0.32 0.16,0.48 0,0.16 0,0.32 -0.16,0.48 L 0.48,-0.16 C 0.32,-0.16 0.16,0 0,0 Z m -73.919998,-10.08 8.639999,8.64 H -0.32 l 8.64,-8.64 -8.64,-8.639999 h -64.959999 z"
             style="fill:#7f7c7c;fill-opacity:1;fill-rule:nonzero;stroke:none"
             id="path234"
             inkscape:connector-curvature="0" /></g><g
           id="g236"><path
             d="m 691.67999,496 -8.64001,-8.79999 v -64.80002 l 8.64001,-8.79998 8.64002,8.79998 v 64.80002 z"
             style="fill:#868282;fill-opacity:1;fill-rule:nonzero;stroke:none"
             id="path238"
             inkscape:connector-curvature="0" /></g><g
           id="g240"
           transform="translate(691.67999,497.60001)"><path
             d="M 0,0 C -0.16,0 -0.32,-0.16 -0.48,-0.32 L -9.76,-9.6 c -0.16,-0.16 -0.32,-0.32 -0.32,-0.48 V -75.519997 C -10.08,-75.68 -9.92,-75.839996 -9.76,-76 l 9.28,-9.440002 c 0.16,0 0.32,-0.159996 0.48,-0.159996 0.16,0 0.32,0.159996 0.48,0.159996 L 9.76,-76 c 0.16,0.160004 0.32,0.32 0.32,0.480003 V -10.08 c 0,0.16 -0.16,0.32 -0.32,0.48 L 0.48,-0.32 C 0.32,-0.16 0.16,0 0,0 Z m 0,-84 -8.64,8.800003 V -10.4 L 0,-1.6 8.64,-10.4 v -64.799997 z"
             style="fill:#7f7c7c;fill-opacity:1;fill-rule:nonzero;stroke:none"
             id="path242"
             inkscape:connector-curvature="0" /></g><g
           id="g244"><path
             d="m 785.12,496 -8.64002,-8.79999 v -64.80002 l 8.64002,-8.79998 8.79998,8.79998 v 64.80002 z"
             style="fill:#868282;fill-opacity:1;fill-rule:nonzero;stroke:none"
             id="path246"
             inkscape:connector-curvature="0" /></g><g
           id="g248"
           transform="translate(785.12,497.60001)"><path
             d="M 0,0 C -0.16,0 -0.32,-0.16 -0.32,-0.32 L -9.76,-9.6 c -0.16,-0.16 -0.16,-0.32 -0.16,-0.48 v -65.439997 c 0,-0.160003 0,-0.319999 0.16,-0.480003 l 9.44,-9.440002 c 0,0 0.16,-0.159996 0.32,-0.159996 0.32,0 0.48,0.159996 0.48,0.159996 L 9.92,-76 c 0.16,0.160004 0.16,0.32 0.16,0.480003 V -10.08 c 0,0.16 0,0.32 -0.16,0.48 L 0.48,-0.32 C 0.48,-0.16 0.32,0 0,0 Z m 0,-84 -8.64,8.800003 V -10.4 L 0,-1.6 8.8,-10.4 v -64.799997 z"
             style="fill:#7f7c7c;fill-opacity:1;fill-rule:nonzero;stroke:none"
             id="path250"
             inkscape:connector-curvature="0" /></g><g
           id="g252"><path
             d="m 770.88,510.23999 h -64.96002 l -8.63995,-8.63998 8.63995,-8.80002 H 770.88 l 8.64002,8.80002 z"
             style="fill:#868282;fill-opacity:1;fill-rule:nonzero;stroke:none"
             id="path254"
             inkscape:connector-curvature="0" /></g><g
           id="g256"
           transform="translate(771.20001,511.51999)"><path
             d="m 0,0 h -65.440002 c -0.159996,0 -0.479996,0 -0.479996,-0.16 l -9.440003,-9.28 0.480004,-0.48 0.479995,0.48 -0.479995,-0.48 -0.480004,0.48 c -0.159996,-0.32 -0.159996,-0.8 0,-0.96 l 9.440003,-9.44 c 0,0 0.32,-0.16 0.479996,-0.16 L 0,-20 c 0.16,0 0.32,0.16 0.48,0.16 l 9.28,9.44 c 0.16,0.16 0.16,0.32 0.16,0.48 0,0.16 0,0.32 -0.16,0.48 L 0.48,-0.16 C 0.32,0 0.16,0 0,0 Z m -73.919998,-9.92 8.639999,8.64 H -0.32 l 8.64,-8.64 -8.64,-8.799999 h -64.959999 z"
             style="fill:#7f7c7c;fill-opacity:1;fill-rule:nonzero;stroke:none"
             id="path258"
             inkscape:connector-curvature="0" /></g></g></g><g
       id="g260"
       transform="translate(244.16,242.72)"><path
         d="M 0,0 H -36 V 1.76 H 0 Z m 567.67999,1.76 h 36 V 0 h -36 z M 0,328.79999 H -36 V 330.56 H 0 Z M 567.67999,330.56 h 36 v -1.76001 h -36 z M 8.8,-7.2 V -43.200001 H 7.04 V -7.2 Z M 7.04,337.76001 v 36 H 8.8 v -36 z M 560.64001,-7.2 V -43.200001 H 558.88 V -7.2 Z M 558.88,337.76001 v 36 h 1.76001 v -36 z"
         style="fill:#ffffff;fill-opacity:1;fill-rule:nonzero;stroke:none"
         id="path262"
         inkscape:connector-curvature="0" /></g></g></svg>